<?xml version="1.0"?>
<svg width="125" height="125" xmlns="http://www.w3.org/2000/svg" xmlns:svg="http://www.w3.org/2000/svg" xmlns:xlink="http://www.w3.org/1999/xlink" fill="#ff4a57">
 <defs>
  <symbol height="700px" id="svg_3" version="1.1" viewBox="0 0 700 700" width="700px" xmlns="http://www.w3.org/2000/svg" xmlns:xlink="http://www.w3.org/1999/xlink">
   <g>
    <path d="m187.81,322c-9.19,-4.44 -19.44,-7 -30.31,-7c-38.6,0 -70,31.4 -70,70s31.4,70 70,70c24.22,0 45.6,-12.37 58.17,-31.12l66.13,33.1c-1.14,4.99 -1.8,10.18 -1.8,15.52c0,38.6 31.4,70 70,70s70,-31.4 70,-70c0,-14.51 -4.44,-27.99 -12.03,-39.18l92.92,-97.16c11.65,8.65 26.02,13.84 41.61,13.84c38.6,0 70,-31.4 70,-70s-31.4,-70 -70,-70c-16.15,0 -30.99,5.55 -42.86,14.77l-94.41,-94.41c9.22,-11.87 14.77,-26.71 14.77,-42.86c0,-38.6 -31.4,-70 -70,-70s-70,31.4 -70,70c0,5.32 0.65,10.49 1.79,15.48l-62.06,22.61c-11.63,-22.59 -35.13,-38.09 -62.23,-38.09c-38.6,0 -70,31.4 -70,70s31.4,70 70,70c9.96,0 19.42,-2.12 28,-5.89l32.21,54.21l-29.9,46.18zm-30.31,115.5c-28.95,0 -52.5,-23.55 -52.5,-52.5s23.55,-52.5 52.5,-52.5s52.5,23.55 52.5,52.5s-23.55,52.5 -52.5,52.5zm65.97,-29.31c2.56,-7.26 4.03,-15.05 4.03,-23.19c0,-21.46 -9.73,-40.68 -24.98,-53.52l25.17,-38.87l75.87,127.67c-6.39,5.69 -11.74,12.5 -15.7,20.15l-64.39,-32.24zm126.54,-250.69c16.15,0 30.99,-5.55 42.86,-14.78l94.42,94.43c-5.66,7.28 -9.9,15.68 -12.34,24.84l-54.97,-7.56c-0.01,-0.23 0.03,-0.46 0.03,-0.69c0,-38.59 -31.41,-70 -70,-70c-24.22,0 -45.61,12.38 -58.18,31.13l-10.43,-5.21l38.3,-59.16c9.18,4.43 19.44,7 30.31,7zm8.75,245.61l0,-79.97c28.43,-3.57 51.57,-24.24 58.81,-51.38l54.97,7.56c0,0.23 -0.03,0.45 -0.03,0.68c0,16.71 5.89,32.05 15.7,44.1l-91.87,96.07c-10.3,-9.13 -23.26,-15.26 -37.58,-17.06zm-8.75,-201.86c28.95,0 52.5,23.54 52.5,52.5s-23.55,52.5 -52.5,52.5s-52.5,-23.55 -52.5,-52.5s23.54,-52.5 52.5,-52.5zm-65.97,29.3c-2.57,7.27 -4.03,15.06 -4.03,23.2c0,35.62 26.77,65.06 61.25,69.39l0,79.97c-8.3,1.04 -16.13,3.52 -23.26,7.21l-79.7,-134.11l33.52,-51.77l12.22,6.11zm65.97,294.45c-28.96,0 -52.5,-23.55 -52.5,-52.5s23.54,-52.5 52.5,-52.5s52.5,23.55 52.5,52.5s-23.55,52.5 -52.5,52.5zm192.5,-297.5c28.95,0 52.5,23.55 52.5,52.5s-23.55,52.5 -52.5,52.5s-52.5,-23.55 -52.5,-52.5s23.54,-52.5 52.5,-52.5zm-192.5,-192.5c28.95,0 52.5,23.55 52.5,52.5s-23.55,52.5 -52.5,52.5s-52.5,-23.55 -52.5,-52.5s23.54,-52.5 52.5,-52.5zm-62.23,84.41c4.27,8.3 10.13,15.65 17.21,21.61l-39.34,60.76l-42.18,-21.08c2.57,-7.27 4.04,-15.06 4.04,-23.2c0,-5.32 -0.65,-10.49 -1.79,-15.48l62.06,-22.61zm-182.77,38.09c0,-28.95 23.54,-52.5 52.5,-52.5s52.5,23.55 52.5,52.5s-23.55,52.5 -52.5,52.5s-52.5,-23.55 -52.5,-52.5zm95.5,55.12c5.87,-4.59 11.01,-10.05 15.17,-16.24l40.4,20.19l-27.75,42.85l-27.82,-46.8z"/>
   </g>
  </symbol>
 </defs>
 <g class="layer">
  <title>Layer 1</title>
  <use id="svg_5" transform="matrix(0.228571 0 0 0.228571 -1 1)" x="-70" xlink:href="#svg_3" y="-13.12"/>
 </g>
</svg>