<svg width="0" height="0" class="hidden">
  <symbol xmlns="http://www.w3.org/2000/svg" viewBox="0 0 50 50" id="bmw">
    <path d="M 25 1 C 11.757813 1 1 11.757813 1 25 C 1 38.242188 11.757813 49 25 49 C 38.242188 49 49 38.242188 49 25 C 49 11.757813 38.242188 1 25 1 Z M 25 3 C 37.164063 3 47 12.835938 47 25 C 47 37.160156 37.164063 47 25 47 C 12.839844 47 3 37.160156 3 25 C 3 12.835938 12.839844 3 25 3 Z M 23.46875 3.71875 L 21.375 3.96875 L 21.15625 10.28125 L 22.78125 10.03125 L 22.9375 5.8125 L 24.40625 10.03125 L 25.59375 10.03125 L 27.0625 5.8125 L 27.21875 10.03125 L 28.84375 10.28125 L 28.625 3.96875 L 26.53125 3.71875 L 25 8.15625 Z M 38.78125 8.5625 L 35 13.5625 L 36.15625 14.625 L 40.34375 12.71875 L 37.5625 16.375 L 38.375 17.75 L 44.0625 15.125 L 43.25 13.75 L 39.96875 15.25 L 42.3125 12.1875 L 41.28125 10.90625 L 37.78125 12.53125 L 39.96875 9.65625 Z M 10.9375 9.3125 C 10.796875 9.324219 10.636719 9.355469 10.5 9.40625 C 10.242188 9.503906 10.015625 9.660156 9.84375 9.875 C 9.746094 9.996094 9.660156 10.128906 9.5625 10.25 C 9.054688 10.886719 8.539063 11.519531 8.03125 12.15625 C 7.59375 12.703125 7.15625 13.234375 6.71875 13.78125 C 6.691406 13.816406 6.652344 13.871094 6.625 13.90625 C 6.621094 13.910156 6.683594 13.933594 6.6875 13.9375 C 6.859375 14.074219 7.050781 14.207031 7.21875 14.34375 C 7.859375 14.855469 8.484375 15.363281 9.125 15.875 C 9.757813 16.382813 10.394531 16.898438 11.03125 17.40625 C 11.191406 17.535156 11.371094 17.683594 11.53125 17.8125 C 11.539063 17.820313 11.554688 17.851563 11.5625 17.84375 C 11.59375 17.804688 11.625 17.757813 11.65625 17.71875 C 12.089844 17.175781 12.535156 16.636719 12.96875 16.09375 C 13.492188 15.441406 14.007813 14.777344 14.53125 14.125 C 14.800781 13.789063 15.089844 13.484375 15.21875 13.0625 C 15.285156 12.84375 15.300781 12.597656 15.28125 12.375 C 15.195313 11.777344 14.835938 11.285156 14.28125 11.03125 C 13.726563 10.777344 13.082031 10.871094 12.59375 11.21875 C 12.554688 11.246094 12.507813 11.28125 12.46875 11.3125 C 12.550781 11.035156 12.601563 10.753906 12.53125 10.46875 C 12.464844 10.191406 12.296875 9.949219 12.09375 9.75 C 11.78125 9.445313 11.363281 9.28125 10.9375 9.3125 Z M 10.8125 10.90625 C 11.027344 10.890625 11.257813 10.960938 11.40625 11.125 C 11.566406 11.300781 11.613281 11.550781 11.5625 11.78125 C 11.503906 11.984375 11.347656 12.121094 11.21875 12.28125 C 10.960938 12.605469 10.695313 12.925781 10.4375 13.25 C 10.175781 13.574219 9.914063 13.894531 9.65625 14.21875 C 9.390625 14.007813 9.140625 13.804688 8.875 13.59375 C 8.773438 13.511719 8.664063 13.425781 8.5625 13.34375 C 8.558594 13.339844 8.679688 13.226563 8.6875 13.21875 C 9.179688 12.605469 9.664063 11.988281 10.15625 11.375 C 10.285156 11.214844 10.394531 11.019531 10.59375 10.9375 C 10.660156 10.910156 10.742188 10.910156 10.8125 10.90625 Z M 25 11 C 17.28125 11 11 17.28125 11 25 C 11 32.71875 17.28125 39 25 39 C 32.71875 39 39 32.71875 39 25 C 39 17.28125 32.71875 11 25 11 Z M 13 12.3125 C 13.289063 12.304688 13.535156 12.460938 13.65625 12.71875 C 13.761719 12.96875 13.730469 13.257813 13.5625 13.46875 C 13.394531 13.679688 13.226563 13.886719 13.0625 14.09375 C 12.605469 14.667969 12.144531 15.238281 11.6875 15.8125 C 11.664063 15.792969 11.617188 15.800781 11.59375 15.78125 C 11.46875 15.679688 11.34375 15.570313 11.21875 15.46875 C 11.003906 15.296875 10.808594 15.109375 10.59375 14.9375 C 11.007813 14.417969 11.398438 13.925781 11.8125 13.40625 C 12.015625 13.152344 12.234375 12.878906 12.4375 12.625 C 12.582031 12.445313 12.757813 12.320313 13 12.3125 Z M 25 13 C 31.640625 13 37 18.359375 37 25 L 25 25 L 25 37 C 18.359375 37 13 31.640625 13 25 L 25 25 Z"></path>
  </symbol>
  <symbol version="1.1" xmlns="http://www.w3.org/2000/svg" xmlns:xlink="http://www.w3.org/1999/xlink" enable-background="new 0 0 470 470" viewBox="0 0 470 470" id="coding">
    <g>
      <path d="m167.313,209.123c-2.12-3.559-6.723-4.726-10.281-2.605l-87.369,52.039c-2.271,1.352-3.663,3.8-3.663,6.443s1.392,5.091 3.662,6.443l87.369,52.039c1.203,0.717 2.525,1.058 3.831,1.058 2.556,0 5.048-1.308 6.45-3.663 2.12-3.559 0.953-8.162-2.605-10.281l-76.551-45.596 76.551-45.596c3.559-2.119 4.726-6.722 2.606-10.281z"></path>
      <path d="m302.688,320.877c1.403,2.356 3.894,3.663 6.45,3.663 1.306,0 2.628-0.341 3.831-1.058l87.369-52.039c2.271-1.353 3.662-3.8 3.662-6.443s-1.392-5.091-3.662-6.443l-87.369-52.039c-3.558-2.12-8.163-0.954-10.281,2.605-2.12,3.559-0.953,8.162 2.605,10.281l76.551,45.596-76.551,45.596c-3.559,2.119-4.726,6.722-2.605,10.281z"></path>
      <path d="m263.72,208.78l-69.893,104.078c-2.309,3.438-1.394,8.098 2.045,10.408 1.284,0.862 2.737,1.274 4.175,1.274 2.415,0 4.786-1.165 6.233-3.32l69.893-104.078c2.309-3.438 1.394-8.098-2.045-10.408-3.441-2.309-8.1-1.392-10.408,2.046z"></path>
      <path d="m462.5,22.5h-455c-4.143,0-7.5,3.358-7.5,7.5v410c0,4.142 3.357,7.5 7.5,7.5h455c4.143,0 7.5-3.358 7.5-7.5v-80c0-4.142-3.357-7.5-7.5-7.5s-7.5,3.358-7.5,7.5v72.5h-440v-335h440v232.5c0,4.142 3.357,7.5 7.5,7.5s7.5-3.358 7.5-7.5v-300c0-4.142-3.357-7.5-7.5-7.5zm-447.5,15h277.5v45h-277.5v-45zm292.5,45v-45h147.5v45h-147.5z"></path>
      <path d="m381.5,52c-4.411,0-8,3.589-8,8s3.589,8 8,8 8-3.589 8-8-3.589-8-8-8z"></path>
      <path d="m340.5,52c-4.411,0-8,3.589-8,8s3.589,8 8,8 8-3.589 8-8-3.589-8-8-8z"></path>
      <path d="m422.5,52c-4.411,0-8,3.589-8,8s3.589,8 8,8 8-3.589 8-8-3.589-8-8-8z"></path>
    </g>
  </symbol>
  <symbol xmlns="http://www.w3.org/2000/svg" viewBox="0 0 64 64" id="computer">
    <g id="Computer-Engineer-Coding-Programing-Configulation">
      <path d="m13.293 14.293-3 3a1 1 0 0 0 0 1.414l3 3 1.414-1.414-2.293-2.293 2.293-2.293z"></path>
      <path d="m14.228 17h8.544v2h-8.544z" transform="matrix(.351 -.936 .936 .351 -4.85 29.002)"></path>
      <path d="m23.707 21.707 3-3a1 1 0 0 0 0-1.414l-3-3-1.414 1.414 2.293 2.293-2.293 2.293z"></path>
      <path d="m10 26h4v2h-4z"></path>
      <path d="m16 26h10v2h-10z"></path>
      <path d="m12 30h4v2h-4z"></path>
      <path d="m18 30h10v2h-10z"></path>
      <path d="m30 30h2v2h-2z"></path>
      <path d="m12 34h4v2h-4z"></path>
      <path d="m18 34h10v2h-10z"></path>
      <path d="m30 34h2v2h-2z"></path>
      <path d="m61.142 13.01-2.682-.383a10.86 10.86 0 0 0 -.679-1.639l1.625-2.166a1 1 0 0 0 -.093-1.307l-2.828-2.828a1 1 0 0 0 -1.306-.093l-2.167 1.624a10.9 10.9 0 0 0 -1.639-.678l-.383-2.682a1 1 0 0 0 -.99-.858h-4a1 1 0 0 0 -.99.858l-.383 2.682a10.855 10.855 0 0 0 -1.639.678l-2.167-1.624a1 1 0 0 0 -1.306.093l-2.828 2.828a1 1 0 0 0 -.093 1.307l1.625 2.166a10.86 10.86 0 0 0 -.679 1.639l-2.682.383a1 1 0 0 0 -.858.99v4a1 1 0 0 0 .858.99l2.682.383a10.86 10.86 0 0 0 .679 1.639l-1.625 2.166a1 1 0 0 0 .093 1.307l2.828 2.828a1 1 0 0 0 1.306.093l2.167-1.624a10.855 10.855 0 0 0 1.639.678l.383 2.682a1 1 0 0 0 .99.858h4a1 1 0 0 0 .99-.858l.383-2.682a10.9 10.9 0 0 0 1.639-.678l2.167 1.624a1 1 0 0 0 1.306-.093l2.828-2.828a1 1 0 0 0 .093-1.307l-1.625-2.166a10.86 10.86 0 0 0 .679-1.639l2.682-.383a1 1 0 0 0 .858-.99v-4a1 1 0 0 0 -.858-.99zm-1.142 4.123-2.463.352a1 1 0 0 0 -.827.742 8.923 8.923 0 0 1 -.977 2.357 1 1 0 0 0 .061 1.111l1.492 1.99-1.6 1.6-1.991-1.492a1 1 0 0 0 -1.11-.06 8.859 8.859 0 0 1 -2.356.975 1 1 0 0 0 -.744.828l-.352 2.464h-2.266l-.351-2.463a1 1 0 0 0 -.744-.828 8.859 8.859 0 0 1 -2.356-.975 1 1 0 0 0 -1.11.06l-1.991 1.492-1.6-1.6 1.492-1.99a1 1 0 0 0 .061-1.111 8.923 8.923 0 0 1 -.977-2.357 1 1 0 0 0 -.827-.742l-2.464-.353v-2.266l2.463-.352a1 1 0 0 0 .827-.742 8.923 8.923 0 0 1 .977-2.357 1 1 0 0 0 -.061-1.111l-1.492-1.99 1.6-1.6 1.991 1.492a1 1 0 0 0 1.11.06 8.859 8.859 0 0 1 2.356-.975 1 1 0 0 0 .744-.828l.352-2.464h2.266l.351 2.463a1 1 0 0 0 .744.828 8.859 8.859 0 0 1 2.356.975 1 1 0 0 0 1.11-.06l1.991-1.492 1.6 1.6-1.492 1.99a1 1 0 0 0 -.061 1.111 8.923 8.923 0 0 1 .977 2.357 1 1 0 0 0 .827.742l2.464.353z"></path>
      <path d="m48 10a6 6 0 1 0 6 6 6.006 6.006 0 0 0 -6-6zm0 10a4 4 0 1 1 4-4 4 4 0 0 1 -4 4z"></path>
      <path d="m52 40h-48v-25a3 3 0 0 1 3-3h28v-2h-28a5.006 5.006 0 0 0 -5 5v30a5.006 5.006 0 0 0 5 5h12.867l-.75 6h-2.117a2 2 0 0 0 -2 2v2a2 2 0 0 0 2 2h22a2 2 0 0 0 2-2v-2a2 2 0 0 0 -2-2h-2.117l-.75-6h12.867a5.006 5.006 0 0 0 5-5v-16h-2zm-13 20h-22v-2h22zm-4.133-4h-13.734l.75-6h12.234zm14.133-8h-42a3 3 0 0 1 -3-3v-3h48v3a3 3 0 0 1 -3 3z"></path>
      <path d="m46 44h2v2h-2z"></path>
    </g>
  </symbol>
  <symbol  xmlns="http://www.w3.org/2000/svg" viewBox="0 0 50 50" id="gmail">
    <path d="M 5.5 7 C 3.03125 7 1.011719 9.015625 1 11.484375 C 1 11.484375 1 11.488281 1 11.492188 C 1 11.496094 1 11.496094 1 11.5 L 1 38.5 C 1 40.972656 3.027344 43 5.5 43 L 44.5 43 C 46.972656 43 49 40.972656 49 38.5 L 49 11.5 C 49 11.496094 49 11.496094 49 11.492188 C 49 11.488281 49 11.484375 49 11.484375 C 48.988281 9.015625 46.96875 7 44.5 7 Z M 8.101563 9 L 41.902344 9 L 25 20.78125 Z M 4.773438 9.117188 L 25 23.21875 L 45.230469 9.117188 C 46.253906 9.425781 46.992188 10.355469 47 11.488281 C 46.996094 11.699219 46.78125 12.121094 46.46875 12.460938 C 46.152344 12.804688 45.84375 13.019531 45.84375 13.019531 L 45.839844 13.027344 L 25 27.777344 L 4.160156 13.027344 L 4.15625 13.019531 C 4.15625 13.019531 3.847656 12.804688 3.53125 12.460938 C 3.21875 12.121094 3.003906 11.699219 3 11.488281 C 3.007813 10.355469 3.746094 9.425781 4.773438 9.117188 Z M 3 14.652344 C 3 14.652344 3.007813 14.660156 3.007813 14.660156 L 3.015625 14.664063 L 3.015625 14.667969 L 6 16.777344 L 6 41 L 5.5 41 C 4.109375 41 3 39.890625 3 38.5 Z M 47 14.652344 L 47 38.5 C 47 39.890625 45.890625 41 44.5 41 L 44 41 L 44 16.777344 L 46.984375 14.667969 L 46.984375 14.664063 C 46.984375 14.664063 47 14.652344 47 14.652344 Z M 8 18.191406 L 25 30.222656 L 42 18.191406 L 42 41 L 8 41 Z"></path>
  </symbol>
  <symbol id="growth" enable-background="new 0 0 512 512" xmlns="http://www.w3.org/2000/svg" viewBox="0 0 512 512">
    <g>
      <g>
        <path d="m504.5 480.837h-38.97v-240.347c0-4.142-3.357-7.5-7.5-7.5s-7.5 3.358-7.5 7.5v240.347h-49.648l-.002-318.357h49.65v43.01c0 4.142 3.357 7.5 7.5 7.5s7.5-3.358 7.5-7.5v-50.51c0-4.142-3.357-7.5-7.5-7.5h-64.65c-4.143 0-7.5 3.358-7.5 7.5v43.012h-57.148c-4.143 0-7.5 3.358-7.5 7.5v43.008h-57.15c-4.143 0-7.5 3.358-7.5 7.5v43.008h-57.15c-4.143 0-7.5 3.358-7.5 7.5v43.008h-57.15c-4.143 0-7.5 3.358-7.5 7.5v38.964h-57.152c-4.143 0-7.5 3.358-7.5 7.5v20.89c0 4.142 3.357 7.5 7.5 7.5s7.5-3.358 7.5-7.5v-13.39h49.65v69.857h-49.65v-21.467c0-4.142-3.357-7.5-7.5-7.5s-7.5 3.358-7.5 7.5v21.467h-31.467v-473.337c0-4.142-3.357-7.5-7.5-7.5s-7.5 3.358-7.5 7.5v38.967h-8.663c-4.143 0-7.5 3.358-7.5 7.5s3.357 7.5 7.5 7.5h8.663v49.65h-8.663c-4.143 0-7.5 3.358-7.5 7.5s3.357 7.5 7.5 7.5h8.663v49.65h-8.663c-4.143 0-7.5 3.358-7.5 7.5s3.357 7.5 7.5 7.5h8.663v49.65h-8.663c-4.143 0-7.5 3.358-7.5 7.5s3.357 7.5 7.5 7.5h8.663v49.651h-8.663c-4.143 0-7.5 3.358-7.5 7.5s3.357 7.5 7.5 7.5h8.663v49.65h-8.663c-4.143 0-7.5 3.358-7.5 7.5s3.357 7.5 7.5 7.5h8.663v49.65h-8.663c-4.143 0-7.5 3.358-7.5 7.5s3.357 7.5 7.5 7.5h8.663v38.967c0 4.142 3.357 7.5 7.5 7.5h38.967v8.663c0 4.142 3.357 7.5 7.5 7.5s7.5-3.358 7.5-7.5v-8.66h49.65v8.66c0 4.142 3.357 7.5 7.5 7.5s7.5-3.358 7.5-7.5v-8.663h49.65v8.663c0 4.142 3.357 7.5 7.5 7.5s7.5-3.358 7.5-7.5v-8.663h49.65v8.663c0 4.142 3.357 7.5 7.5 7.5s7.5-3.358 7.5-7.5v-8.663h49.65v8.663c0 4.142 3.357 7.5 7.5 7.5s7.5-3.358 7.5-7.5v-8.663h49.65v8.663c0 4.142 3.357 7.5 7.5 7.5s7.5-3.358 7.5-7.5v-8.66h49.65v8.66c0 4.142 3.357 7.5 7.5 7.5s7.5-3.358 7.5-7.5v-8.663h38.97c4.143 0 7.5-3.358 7.5-7.5s-3.357-7.498-7.5-7.498zm-362.22-116.321h49.65v116.321h-49.65zm64.651-50.508h49.65v166.829h-49.65zm64.65-50.508h49.65v217.337h-49.65zm64.65-50.508h49.648v267.846h-49.648z"></path>
        <path d="m86.1 338.44c6.323 0 12.267-2.46 16.734-6.927l112.91-112.91c2.929-2.929 2.929-7.678 0-10.606-2.93-2.929-7.678-2.929-10.607 0l-112.909 112.909c-1.635 1.634-3.811 2.534-6.128 2.534-2.311 0-4.482-.9-6.116-2.533-1.64-1.64-2.543-3.817-2.543-6.13 0-2.311.901-4.484 2.543-6.123l263.521-263.52c2.145-2.145 2.786-5.371 1.625-8.173-1.16-2.803-3.896-4.63-6.929-4.63h-23.61c-4.775 0-8.66-3.889-8.66-8.67 0-4.775 3.885-8.66 8.66-8.66h62.63c4.775 0 8.66 3.885 8.66 8.66v62.63c0 4.781-3.885 8.67-8.66 8.67s-8.66-3.889-8.66-8.67v-23.611c0-3.034-1.827-5.768-4.63-6.929-2.804-1.161-6.027-.518-8.174 1.626l-125.88 125.88c-2.929 2.929-2.929 7.678 0 10.606 2.93 2.929 7.678 2.929 10.607 0l113.076-113.076v5.503c0 13.052 10.614 23.67 23.66 23.67s23.66-10.618 23.66-23.67v-62.63c0-13.046-10.614-23.66-23.66-23.66h-62.63c-13.046 0-23.66 10.614-23.66 23.66 0 13.052 10.614 23.67 23.66 23.67h5.504l-250.714 250.713c-4.475 4.469-6.939 10.412-6.939 16.733 0 6.32 2.463 12.264 6.937 16.737 4.466 4.467 10.405 6.927 16.722 6.927z"></path>
      </g>
    </g>
  </symbol>
  <symbol  xmlns="http://www.w3.org/2000/svg" viewBox="0 0 50 50" id="instagram">
    <path d="M 16 3 C 8.8324839 3 3 8.8324839 3 16 L 3 34 C 3 41.167516 8.8324839 47 16 47 L 34 47 C 41.167516 47 47 41.167516 47 34 L 47 16 C 47 8.8324839 41.167516 3 34 3 L 16 3 z M 16 5 L 34 5 C 40.086484 5 45 9.9135161 45 16 L 45 34 C 45 40.086484 40.086484 45 34 45 L 16 45 C 9.9135161 45 5 40.086484 5 34 L 5 16 C 5 9.9135161 9.9135161 5 16 5 z M 37 11 A 2 2 0 0 0 35 13 A 2 2 0 0 0 37 15 A 2 2 0 0 0 39 13 A 2 2 0 0 0 37 11 z M 25 14 C 18.936712 14 14 18.936712 14 25 C 14 31.063288 18.936712 36 25 36 C 31.063288 36 36 31.063288 36 25 C 36 18.936712 31.063288 14 25 14 z M 25 16 C 29.982407 16 34 20.017593 34 25 C 34 29.982407 29.982407 34 25 34 C 20.017593 34 16 29.982407 16 25 C 16 20.017593 20.017593 16 25 16 z"></path>
  </symbol>
  <symbol  xmlns="http://www.w3.org/2000/svg" viewBox="0 0 50 50" id="java">
    <path d="M 28.1875 0 C 30.9375 6.363281 18.328125 10.292969 17.15625 15.59375 C 16.082031 20.464844 24.648438 26.125 24.65625 26.125 C 23.355469 24.109375 22.398438 22.449219 21.09375 19.3125 C 18.886719 14.007813 34.535156 9.207031 28.1875 0 Z M 36.5625 8.8125 C 36.5625 8.8125 25.5 9.523438 24.9375 16.59375 C 24.6875 19.742188 27.847656 21.398438 27.9375 23.6875 C 28.011719 25.558594 26.0625 27.125 26.0625 27.125 C 26.0625 27.125 29.609375 26.449219 30.71875 23.59375 C 31.949219 20.425781 28.320313 18.285156 28.6875 15.75 C 29.039063 13.324219 36.5625 8.8125 36.5625 8.8125 Z M 19.1875 25.15625 C 19.1875 25.15625 9.0625 25.011719 9.0625 27.875 C 9.0625 30.867188 22.316406 31.089844 31.78125 29.25 C 31.78125 29.25 34.296875 27.519531 34.96875 26.875 C 28.765625 28.140625 14.625 28.28125 14.625 27.1875 C 14.625 26.179688 19.1875 25.15625 19.1875 25.15625 Z M 38.65625 25.15625 C 37.664063 25.234375 36.59375 25.617188 35.625 26.3125 C 37.90625 25.820313 39.84375 27.234375 39.84375 28.84375 C 39.84375 32.46875 34.59375 35.875 34.59375 35.875 C 34.59375 35.875 42.71875 34.953125 42.71875 29 C 42.71875 26.296875 40.839844 24.984375 38.65625 25.15625 Z M 16.75 30.71875 C 15.195313 30.71875 12.875 31.9375 12.875 33.09375 C 12.875 35.417969 24.5625 37.207031 33.21875 33.8125 L 30.21875 31.96875 C 24.351563 33.847656 13.546875 33.234375 16.75 30.71875 Z M 18.1875 35.9375 C 16.058594 35.9375 14.65625 37.222656 14.65625 38.1875 C 14.65625 41.171875 27.371094 41.472656 32.40625 38.4375 L 29.21875 36.40625 C 25.457031 37.996094 16.015625 38.238281 18.1875 35.9375 Z M 11.09375 38.625 C 7.625 38.554688 5.375 40.113281 5.375 41.40625 C 5.375 48.28125 40.875 47.964844 40.875 40.9375 C 40.875 39.769531 39.527344 39.203125 39.03125 38.9375 C 41.933594 45.65625 9.96875 45.121094 9.96875 41.15625 C 9.96875 40.253906 12.320313 39.390625 14.5 39.8125 L 12.65625 38.75 C 12.113281 38.667969 11.589844 38.636719 11.09375 38.625 Z M 44.625 43.25 C 39.226563 48.367188 25.546875 50.222656 11.78125 47.0625 C 25.542969 52.695313 44.558594 49.535156 44.625 43.25 Z"></path>
  </symbol>
  <symbol  xmlns="http://www.w3.org/2000/svg" viewBox="0 0 50 50" id="linkedin">
    <path d="M 8 3.0117188 C 6.3126093 3.0117188 4.8354789 3.4916328 3.7539062 4.3652344 C 2.6723337 5.238836 2.0117188 6.533218 2.0117188 7.9472656 C 2.0117188 10.690836 4.4687078 12.814467 7.7167969 12.941406 A 0.98809878 0.98809878 0 0 0 8 12.988281 C 9.753566 12.988281 11.246191 12.474267 12.3125 11.564453 C 13.378809 10.654639 13.988281 9.3429353 13.988281 7.9472656 A 0.98809878 0.98809878 0 0 0 13.986328 7.8925781 C 13.832307 5.1316834 11.374781 3.0117187 8 3.0117188 z M 8 4.9882812 C 10.60907 4.9882812 11.895883 6.2693448 12.005859 7.9726562 C 11.998759 8.8049335 11.676559 9.5118991 11.03125 10.0625 C 10.378809 10.619186 9.371434 11.011719 8 11.011719 C 5.3980542 11.011719 3.9882813 9.5991704 3.9882812 7.9472656 C 3.9882812 7.1213132 4.3276663 6.4422421 4.9960938 5.9023438 C 5.6645211 5.3624454 6.6873907 4.9882813 8 4.9882812 z M 3 15 A 1.0001 1.0001 0 0 0 2 16 L 2 45 A 1.0001 1.0001 0 0 0 3 46 L 13 46 A 1.0001 1.0001 0 0 0 14 45 L 14 35.664062 L 14 16 A 1.0001 1.0001 0 0 0 13 15 L 3 15 z M 18 15 A 1.0001 1.0001 0 0 0 17 16 L 17 45 A 1.0001 1.0001 0 0 0 18 46 L 28 46 A 1.0001 1.0001 0 0 0 29 45 L 29 29 L 29 28.75 L 29 28.5 C 29 26.555577 30.555577 25 32.5 25 C 34.444423 25 36 26.555577 36 28.5 L 36 45 A 1.0001 1.0001 0 0 0 37 46 L 47 46 A 1.0001 1.0001 0 0 0 48 45 L 48 28 C 48 23.873476 46.787888 20.604454 44.744141 18.375 C 42.700394 16.145546 39.849212 15 36.787109 15 C 32.882872 15 30.521631 16.426076 29 17.601562 L 29 16 A 1.0001 1.0001 0 0 0 28 15 L 18 15 z M 4 17 L 12 17 L 12 35.664062 L 12 44 L 4 44 L 4 17 z M 19 17 L 27 17 L 27 19.638672 A 1.0001 1.0001 0 0 0 28.744141 20.306641 C 28.744141 20.306641 31.709841 17 36.787109 17 C 39.360007 17 41.615528 17.922268 43.269531 19.726562 C 44.923534 21.530858 46 24.261524 46 28 L 46 44 L 38 44 L 38 28.5 A 1.0001 1.0001 0 0 0 37.916016 28.089844 C 37.694061 25.26411 35.38033 23 32.5 23 C 29.474423 23 27 25.474423 27 28.5 L 27 28.75 L 27 29 L 27 44 L 19 44 L 19 17 z"></path>
  </symbol>
  <symbol xmlns="http://www.w3.org/2000/svg" viewBox="0 0 160 50" id="logo">
    <g id="Layer_1">
      <title>Layer 1</title>
      <path stroke="#ff4a57" id="svg_1" d="m1.84782,25l9.92236,-20.10869l26.45963,0l9.92236,20.10869l-9.92236,20.10869l-26.45963,0l-9.92236,-20.10869z" fill="none"></path><text font-style="normal" font-weight="normal" xml:space="preserve" text-anchor="start" font-family="sans-serif" font-size="26" stroke-width="0" id="svg_4" y="34.02174" x="12.71739" stroke="#000" fill="#ff4a57">W</text><text xml:space="preserve" text-anchor="start" font-family="sans-serif" font-size="20" id="svg_5" y="31.95652" x="55.5367" stroke-width="0" stroke="#000" fill="#ffffff">Wicus Buys</text>
    </g>
  </symbol>
  <symbol xmlns="http://www.w3.org/2000/svg" viewBox="0 0 50 50" id="menu">
    <path d="M 0 9 L 0 11 L 50 11 L 50 9 Z M 0 24 L 0 26 L 50 26 L 50 24 Z M 0 39 L 0 41 L 50 41 L 50 39 Z"></path>
  </symbol>
  <symbol  xmlns="http://www.w3.org/2000/svg" viewBox="0 0 50 50" id="phone">
    <path d="M 14 3.9902344 C 8.4886661 3.9902344 4 8.4789008 4 13.990234 L 4 35.990234 C 4 41.501568 8.4886661 45.990234 14 45.990234 L 36 45.990234 C 41.511334 45.990234 46 41.501568 46 35.990234 L 46 13.990234 C 46 8.4789008 41.511334 3.9902344 36 3.9902344 L 14 3.9902344 z M 14 5.9902344 L 36 5.9902344 C 40.430666 5.9902344 44 9.5595687 44 13.990234 L 44 35.990234 C 44 40.4209 40.430666 43.990234 36 43.990234 L 14 43.990234 C 9.5693339 43.990234 6 40.4209 6 35.990234 L 6 13.990234 C 6 9.5595687 9.5693339 5.9902344 14 5.9902344 z M 18.048828 11.035156 C 16.003504 10.946776 14.45113 11.723922 13.474609 12.658203 C 12.986349 13.125343 12.633832 13.625179 12.392578 14.091797 C 12.151324 14.558415 11.998047 14.943108 11.998047 15.443359 C 11.998047 15.398799 11.987059 15.632684 11.980469 15.904297 C 11.973869 16.17591 11.97507 16.542045 12 16.984375 C 12.04996 17.869036 12.199897 19.065677 12.597656 20.484375 C 13.393174 23.321771 15.184446 27.043821 19.070312 30.929688 C 22.95618 34.815554 26.678014 36.606575 29.515625 37.402344 C 30.93443 37.800228 32.130881 37.949937 33.015625 38 C 33.457997 38.02503 33.822105 38.026091 34.09375 38.019531 C 34.365395 38.012931 34.601049 38.001953 34.556641 38.001953 C 35.056892 38.001953 35.441585 37.848676 35.908203 37.607422 C 36.374821 37.366168 36.874657 37.013651 37.341797 36.525391 C 38.276078 35.54887 39.053222 33.996496 38.964844 31.951172 C 38.922907 30.975693 38.381316 30.111858 37.582031 29.599609 C 36.96435 29.203814 36.005458 28.589415 34.753906 27.789062 C 33.301811 26.861299 31.44451 26.795029 29.929688 27.625 L 30.015625 27.582031 L 28.837891 28.087891 L 28.751953 28.148438 C 28.465693 28.349428 28.111154 28.386664 27.789062 28.251953 C 26.886813 27.874649 25.480985 27.133329 24.173828 25.826172 C 22.866671 24.519015 22.125351 23.113186 21.748047 22.210938 C 21.613336 21.888845 21.650568 21.534307 21.851562 21.248047 L 21.912109 21.162109 L 22.417969 19.984375 L 22.375 20.070312 C 23.204764 18.555868 23.140248 16.698619 22.210938 15.246094 C 21.410584 13.994542 20.796186 13.03565 20.400391 12.417969 C 19.888142 11.618684 19.02431 11.077096 18.048828 11.035156 z M 17.962891 13.033203 C 18.243409 13.045263 18.533045 13.209378 18.716797 13.496094 C 19.113001 14.114413 19.727696 15.07377 20.527344 16.324219 C 21.058033 17.153694 21.09533 18.243821 20.621094 19.109375 L 20.597656 19.152344 L 20.115234 20.279297 L 20.214844 20.097656 C 19.623835 20.939396 19.505055 22.032514 19.902344 22.982422 C 20.35304 24.060173 21.214923 25.695392 22.759766 27.240234 C 24.304608 28.785077 25.939827 29.64696 27.017578 30.097656 C 27.967486 30.494945 29.060604 30.376165 29.902344 29.785156 L 29.720703 29.884766 L 30.847656 29.402344 L 30.890625 29.378906 C 31.755801 28.904877 32.845877 28.944375 33.675781 29.474609 L 33.675781 29.472656 C 34.92623 30.272304 35.885587 30.886999 36.503906 31.283203 C 36.790622 31.466955 36.954736 31.756591 36.966797 32.037109 C 37.032417 33.555785 36.504954 34.506599 35.896484 35.142578 C 35.59225 35.460568 35.262335 35.691348 34.990234 35.832031 C 34.718133 35.972715 34.457889 36.001953 34.556641 36.001953 C 34.373232 36.001953 34.276633 36.013981 34.046875 36.019531 C 33.817117 36.025131 33.509144 36.025436 33.128906 36.003906 C 32.368431 35.960876 31.318757 35.831053 30.054688 35.476562 C 27.526547 34.767581 24.137509 33.168759 20.484375 29.515625 C 16.831241 25.862491 15.232169 22.473167 14.523438 19.945312 C 14.169071 18.681386 14.039037 17.631464 13.996094 16.871094 C 13.974624 16.490908 13.974899 16.18286 13.980469 15.953125 C 13.986069 15.72339 13.998047 15.626918 13.998047 15.443359 C 13.998047 15.542109 14.027287 15.281867 14.167969 15.009766 C 14.308652 14.737665 14.539432 14.40775 14.857422 14.103516 C 15.493401 13.495046 16.444215 12.967581 17.962891 13.033203 z"></path>
  </symbol>
  <symbol viewBox="0 0 0 0" id="sprite">
    <symbol xmlns="http://www.w3.org/2000/svg" viewBox="0 0 64 64" id="computer">
      <g id="Computer-Engineer-Coding-Programing-Configulation">
        <path d="m13.293 14.293-3 3a1 1 0 0 0 0 1.414l3 3 1.414-1.414-2.293-2.293 2.293-2.293z"></path>
        <path d="m14.228 17h8.544v2h-8.544z" transform="matrix(.351 -.936 .936 .351 -4.85 29.002)"></path>
        <path d="m23.707 21.707 3-3a1 1 0 0 0 0-1.414l-3-3-1.414 1.414 2.293 2.293-2.293 2.293z"></path>
        <path d="m10 26h4v2h-4z"></path>
        <path d="m16 26h10v2h-10z"></path>
        <path d="m12 30h4v2h-4z"></path>
        <path d="m18 30h10v2h-10z"></path>
        <path d="m30 30h2v2h-2z"></path>
        <path d="m12 34h4v2h-4z"></path>
        <path d="m18 34h10v2h-10z"></path>
        <path d="m30 34h2v2h-2z"></path>
        <path d="m61.142 13.01-2.682-.383a10.86 10.86 0 0 0 -.679-1.639l1.625-2.166a1 1 0 0 0 -.093-1.307l-2.828-2.828a1 1 0 0 0 -1.306-.093l-2.167 1.624a10.9 10.9 0 0 0 -1.639-.678l-.383-2.682a1 1 0 0 0 -.99-.858h-4a1 1 0 0 0 -.99.858l-.383 2.682a10.855 10.855 0 0 0 -1.639.678l-2.167-1.624a1 1 0 0 0 -1.306.093l-2.828 2.828a1 1 0 0 0 -.093 1.307l1.625 2.166a10.86 10.86 0 0 0 -.679 1.639l-2.682.383a1 1 0 0 0 -.858.99v4a1 1 0 0 0 .858.99l2.682.383a10.86 10.86 0 0 0 .679 1.639l-1.625 2.166a1 1 0 0 0 .093 1.307l2.828 2.828a1 1 0 0 0 1.306.093l2.167-1.624a10.855 10.855 0 0 0 1.639.678l.383 2.682a1 1 0 0 0 .99.858h4a1 1 0 0 0 .99-.858l.383-2.682a10.9 10.9 0 0 0 1.639-.678l2.167 1.624a1 1 0 0 0 1.306-.093l2.828-2.828a1 1 0 0 0 .093-1.307l-1.625-2.166a10.86 10.86 0 0 0 .679-1.639l2.682-.383a1 1 0 0 0 .858-.99v-4a1 1 0 0 0 -.858-.99zm-1.142 4.123-2.463.352a1 1 0 0 0 -.827.742 8.923 8.923 0 0 1 -.977 2.357 1 1 0 0 0 .061 1.111l1.492 1.99-1.6 1.6-1.991-1.492a1 1 0 0 0 -1.11-.06 8.859 8.859 0 0 1 -2.356.975 1 1 0 0 0 -.744.828l-.352 2.464h-2.266l-.351-2.463a1 1 0 0 0 -.744-.828 8.859 8.859 0 0 1 -2.356-.975 1 1 0 0 0 -1.11.06l-1.991 1.492-1.6-1.6 1.492-1.99a1 1 0 0 0 .061-1.111 8.923 8.923 0 0 1 -.977-2.357 1 1 0 0 0 -.827-.742l-2.464-.353v-2.266l2.463-.352a1 1 0 0 0 .827-.742 8.923 8.923 0 0 1 .977-2.357 1 1 0 0 0 -.061-1.111l-1.492-1.99 1.6-1.6 1.991 1.492a1 1 0 0 0 1.11.06 8.859 8.859 0 0 1 2.356-.975 1 1 0 0 0 .744-.828l.352-2.464h2.266l.351 2.463a1 1 0 0 0 .744.828 8.859 8.859 0 0 1 2.356.975 1 1 0 0 0 1.11-.06l1.991-1.492 1.6 1.6-1.492 1.99a1 1 0 0 0 -.061 1.111 8.923 8.923 0 0 1 .977 2.357 1 1 0 0 0 .827.742l2.464.353z"></path>
        <path d="m48 10a6 6 0 1 0 6 6 6.006 6.006 0 0 0 -6-6zm0 10a4 4 0 1 1 4-4 4 4 0 0 1 -4 4z"></path>
        <path d="m52 40h-48v-25a3 3 0 0 1 3-3h28v-2h-28a5.006 5.006 0 0 0 -5 5v30a5.006 5.006 0 0 0 5 5h12.867l-.75 6h-2.117a2 2 0 0 0 -2 2v2a2 2 0 0 0 2 2h22a2 2 0 0 0 2-2v-2a2 2 0 0 0 -2-2h-2.117l-.75-6h12.867a5.006 5.006 0 0 0 5-5v-16h-2zm-13 20h-22v-2h22zm-4.133-4h-13.734l.75-6h12.234zm14.133-8h-42a3 3 0 0 1 -3-3v-3h48v3a3 3 0 0 1 -3 3z"></path>
        <path d="m46 44h2v2h-2z"></path>
      </g>
    </symbol>
    <symbol xmlns="http://www.w3.org/2000/svg" viewBox="0 0 50 50" id="gmail">
      <path d="M 5.5 7 C 3.03125 7 1.011719 9.015625 1 11.484375 C 1 11.484375 1 11.488281 1 11.492188 C 1 11.496094 1 11.496094 1 11.5 L 1 38.5 C 1 40.972656 3.027344 43 5.5 43 L 44.5 43 C 46.972656 43 49 40.972656 49 38.5 L 49 11.5 C 49 11.496094 49 11.496094 49 11.492188 C 49 11.488281 49 11.484375 49 11.484375 C 48.988281 9.015625 46.96875 7 44.5 7 Z M 8.101563 9 L 41.902344 9 L 25 20.78125 Z M 4.773438 9.117188 L 25 23.21875 L 45.230469 9.117188 C 46.253906 9.425781 46.992188 10.355469 47 11.488281 C 46.996094 11.699219 46.78125 12.121094 46.46875 12.460938 C 46.152344 12.804688 45.84375 13.019531 45.84375 13.019531 L 45.839844 13.027344 L 25 27.777344 L 4.160156 13.027344 L 4.15625 13.019531 C 4.15625 13.019531 3.847656 12.804688 3.53125 12.460938 C 3.21875 12.121094 3.003906 11.699219 3 11.488281 C 3.007813 10.355469 3.746094 9.425781 4.773438 9.117188 Z M 3 14.652344 C 3 14.652344 3.007813 14.660156 3.007813 14.660156 L 3.015625 14.664063 L 3.015625 14.667969 L 6 16.777344 L 6 41 L 5.5 41 C 4.109375 41 3 39.890625 3 38.5 Z M 47 14.652344 L 47 38.5 C 47 39.890625 45.890625 41 44.5 41 L 44 41 L 44 16.777344 L 46.984375 14.667969 L 46.984375 14.664063 C 46.984375 14.664063 47 14.652344 47 14.652344 Z M 8 18.191406 L 25 30.222656 L 42 18.191406 L 42 41 L 8 41 Z"></path>
    </symbol>
    <symbol id="growth" enable-background="new 0 0 512 512" xmlns="http://www.w3.org/2000/svg" viewBox="0 0 512 512">
      <g>
        <g>
          <path d="m504.5 480.837h-38.97v-240.347c0-4.142-3.357-7.5-7.5-7.5s-7.5 3.358-7.5 7.5v240.347h-49.648l-.002-318.357h49.65v43.01c0 4.142 3.357 7.5 7.5 7.5s7.5-3.358 7.5-7.5v-50.51c0-4.142-3.357-7.5-7.5-7.5h-64.65c-4.143 0-7.5 3.358-7.5 7.5v43.012h-57.148c-4.143 0-7.5 3.358-7.5 7.5v43.008h-57.15c-4.143 0-7.5 3.358-7.5 7.5v43.008h-57.15c-4.143 0-7.5 3.358-7.5 7.5v43.008h-57.15c-4.143 0-7.5 3.358-7.5 7.5v38.964h-57.152c-4.143 0-7.5 3.358-7.5 7.5v20.89c0 4.142 3.357 7.5 7.5 7.5s7.5-3.358 7.5-7.5v-13.39h49.65v69.857h-49.65v-21.467c0-4.142-3.357-7.5-7.5-7.5s-7.5 3.358-7.5 7.5v21.467h-31.467v-473.337c0-4.142-3.357-7.5-7.5-7.5s-7.5 3.358-7.5 7.5v38.967h-8.663c-4.143 0-7.5 3.358-7.5 7.5s3.357 7.5 7.5 7.5h8.663v49.65h-8.663c-4.143 0-7.5 3.358-7.5 7.5s3.357 7.5 7.5 7.5h8.663v49.65h-8.663c-4.143 0-7.5 3.358-7.5 7.5s3.357 7.5 7.5 7.5h8.663v49.65h-8.663c-4.143 0-7.5 3.358-7.5 7.5s3.357 7.5 7.5 7.5h8.663v49.651h-8.663c-4.143 0-7.5 3.358-7.5 7.5s3.357 7.5 7.5 7.5h8.663v49.65h-8.663c-4.143 0-7.5 3.358-7.5 7.5s3.357 7.5 7.5 7.5h8.663v49.65h-8.663c-4.143 0-7.5 3.358-7.5 7.5s3.357 7.5 7.5 7.5h8.663v38.967c0 4.142 3.357 7.5 7.5 7.5h38.967v8.663c0 4.142 3.357 7.5 7.5 7.5s7.5-3.358 7.5-7.5v-8.66h49.65v8.66c0 4.142 3.357 7.5 7.5 7.5s7.5-3.358 7.5-7.5v-8.663h49.65v8.663c0 4.142 3.357 7.5 7.5 7.5s7.5-3.358 7.5-7.5v-8.663h49.65v8.663c0 4.142 3.357 7.5 7.5 7.5s7.5-3.358 7.5-7.5v-8.663h49.65v8.663c0 4.142 3.357 7.5 7.5 7.5s7.5-3.358 7.5-7.5v-8.663h49.65v8.663c0 4.142 3.357 7.5 7.5 7.5s7.5-3.358 7.5-7.5v-8.66h49.65v8.66c0 4.142 3.357 7.5 7.5 7.5s7.5-3.358 7.5-7.5v-8.663h38.97c4.143 0 7.5-3.358 7.5-7.5s-3.357-7.498-7.5-7.498zm-362.22-116.321h49.65v116.321h-49.65zm64.651-50.508h49.65v166.829h-49.65zm64.65-50.508h49.65v217.337h-49.65zm64.65-50.508h49.648v267.846h-49.648z"></path>
          <path d="m86.1 338.44c6.323 0 12.267-2.46 16.734-6.927l112.91-112.91c2.929-2.929 2.929-7.678 0-10.606-2.93-2.929-7.678-2.929-10.607 0l-112.909 112.909c-1.635 1.634-3.811 2.534-6.128 2.534-2.311 0-4.482-.9-6.116-2.533-1.64-1.64-2.543-3.817-2.543-6.13 0-2.311.901-4.484 2.543-6.123l263.521-263.52c2.145-2.145 2.786-5.371 1.625-8.173-1.16-2.803-3.896-4.63-6.929-4.63h-23.61c-4.775 0-8.66-3.889-8.66-8.67 0-4.775 3.885-8.66 8.66-8.66h62.63c4.775 0 8.66 3.885 8.66 8.66v62.63c0 4.781-3.885 8.67-8.66 8.67s-8.66-3.889-8.66-8.67v-23.611c0-3.034-1.827-5.768-4.63-6.929-2.804-1.161-6.027-.518-8.174 1.626l-125.88 125.88c-2.929 2.929-2.929 7.678 0 10.606 2.93 2.929 7.678 2.929 10.607 0l113.076-113.076v5.503c0 13.052 10.614 23.67 23.66 23.67s23.66-10.618 23.66-23.67v-62.63c0-13.046-10.614-23.66-23.66-23.66h-62.63c-13.046 0-23.66 10.614-23.66 23.66 0 13.052 10.614 23.67 23.66 23.67h5.504l-250.714 250.713c-4.475 4.469-6.939 10.412-6.939 16.733 0 6.32 2.463 12.264 6.937 16.737 4.466 4.467 10.405 6.927 16.722 6.927z"></path>
        </g>
      </g>
    </symbol>
    <symbol xmlns="http://www.w3.org/2000/svg" viewBox="0 0 50 50" id="instagram">
      <path d="M 16 3 C 8.8324839 3 3 8.8324839 3 16 L 3 34 C 3 41.167516 8.8324839 47 16 47 L 34 47 C 41.167516 47 47 41.167516 47 34 L 47 16 C 47 8.8324839 41.167516 3 34 3 L 16 3 z M 16 5 L 34 5 C 40.086484 5 45 9.9135161 45 16 L 45 34 C 45 40.086484 40.086484 45 34 45 L 16 45 C 9.9135161 45 5 40.086484 5 34 L 5 16 C 5 9.9135161 9.9135161 5 16 5 z M 37 11 A 2 2 0 0 0 35 13 A 2 2 0 0 0 37 15 A 2 2 0 0 0 39 13 A 2 2 0 0 0 37 11 z M 25 14 C 18.936712 14 14 18.936712 14 25 C 14 31.063288 18.936712 36 25 36 C 31.063288 36 36 31.063288 36 25 C 36 18.936712 31.063288 14 25 14 z M 25 16 C 29.982407 16 34 20.017593 34 25 C 34 29.982407 29.982407 34 25 34 C 20.017593 34 16 29.982407 16 25 C 16 20.017593 20.017593 16 25 16 z"></path>
    </symbol>
    <symbol xmlns="http://www.w3.org/2000/svg" viewBox="0 0 50 50" id="linkedin">
      <path d="M 8 3.0117188 C 6.3126093 3.0117188 4.8354789 3.4916328 3.7539062 4.3652344 C 2.6723337 5.238836 2.0117188 6.533218 2.0117188 7.9472656 C 2.0117188 10.690836 4.4687078 12.814467 7.7167969 12.941406 A 0.98809878 0.98809878 0 0 0 8 12.988281 C 9.753566 12.988281 11.246191 12.474267 12.3125 11.564453 C 13.378809 10.654639 13.988281 9.3429353 13.988281 7.9472656 A 0.98809878 0.98809878 0 0 0 13.986328 7.8925781 C 13.832307 5.1316834 11.374781 3.0117187 8 3.0117188 z M 8 4.9882812 C 10.60907 4.9882812 11.895883 6.2693448 12.005859 7.9726562 C 11.998759 8.8049335 11.676559 9.5118991 11.03125 10.0625 C 10.378809 10.619186 9.371434 11.011719 8 11.011719 C 5.3980542 11.011719 3.9882813 9.5991704 3.9882812 7.9472656 C 3.9882812 7.1213132 4.3276663 6.4422421 4.9960938 5.9023438 C 5.6645211 5.3624454 6.6873907 4.9882813 8 4.9882812 z M 3 15 A 1.0001 1.0001 0 0 0 2 16 L 2 45 A 1.0001 1.0001 0 0 0 3 46 L 13 46 A 1.0001 1.0001 0 0 0 14 45 L 14 35.664062 L 14 16 A 1.0001 1.0001 0 0 0 13 15 L 3 15 z M 18 15 A 1.0001 1.0001 0 0 0 17 16 L 17 45 A 1.0001 1.0001 0 0 0 18 46 L 28 46 A 1.0001 1.0001 0 0 0 29 45 L 29 29 L 29 28.75 L 29 28.5 C 29 26.555577 30.555577 25 32.5 25 C 34.444423 25 36 26.555577 36 28.5 L 36 45 A 1.0001 1.0001 0 0 0 37 46 L 47 46 A 1.0001 1.0001 0 0 0 48 45 L 48 28 C 48 23.873476 46.787888 20.604454 44.744141 18.375 C 42.700394 16.145546 39.849212 15 36.787109 15 C 32.882872 15 30.521631 16.426076 29 17.601562 L 29 16 A 1.0001 1.0001 0 0 0 28 15 L 18 15 z M 4 17 L 12 17 L 12 35.664062 L 12 44 L 4 44 L 4 17 z M 19 17 L 27 17 L 27 19.638672 A 1.0001 1.0001 0 0 0 28.744141 20.306641 C 28.744141 20.306641 31.709841 17 36.787109 17 C 39.360007 17 41.615528 17.922268 43.269531 19.726562 C 44.923534 21.530858 46 24.261524 46 28 L 46 44 L 38 44 L 38 28.5 A 1.0001 1.0001 0 0 0 37.916016 28.089844 C 37.694061 25.26411 35.38033 23 32.5 23 C 29.474423 23 27 25.474423 27 28.5 L 27 28.75 L 27 29 L 27 44 L 19 44 L 19 17 z"></path>
    </symbol>
    <symbol xmlns="http://www.w3.org/2000/svg" viewBox="0 0 160 50" id="logo">
      <g id="Layer_1">
        <title>Layer 1</title>
        <path stroke="#ff4a57" id="svg_1" d="m1.84782,25l9.92236,-20.10869l26.45963,0l9.92236,20.10869l-9.92236,20.10869l-26.45963,0l-9.92236,-20.10869z" fill="none"></path><text font-style="normal" font-weight="normal" xml:space="preserve" text-anchor="start" font-family="sans-serif" font-size="26" stroke-width="0" id="svg_4" y="34.02174" x="12.71739" stroke="#000" fill="#ff4a57">W</text><text xml:space="preserve" text-anchor="start" font-family="sans-serif" font-size="20" id="svg_5" y="31.95652" x="55.5367" stroke-width="0" stroke="#000" fill="#ffffff">Wicus Buys</text>
      </g>
    </symbol>
    <symbol xmlns="http://www.w3.org/2000/svg" viewBox="0 0 50 50" id="menu">
      <path d="M 0 9 L 0 11 L 50 11 L 50 9 Z M 0 24 L 0 26 L 50 26 L 50 24 Z M 0 39 L 0 41 L 50 41 L 50 39 Z"></path>
    </symbol>
  </symbol>
  <symbol version="1.1" id="top" xmlns="http://www.w3.org/2000/svg" xmlns:xlink="http://www.w3.org/1999/xlink" x="0px" y="0px" xml:space="preserve" viewBox="0 0 250 250">
    <path d="M166.65,177.884l29.303,15.289v-90.841L166.65,87.044V38.745L125,0L83.348,38.745v48.3
	l-29.301,15.287v90.841l29.301-15.287v12.629h83.303V177.884z M125,83.929c-10.164,0-18.404-8.24-18.404-18.404
	c0-10.164,8.24-18.404,18.404-18.404s18.404,8.24,18.404,18.404C143.404,75.688,135.164,83.929,125,83.929z M92.968,229.362v-27.794
	h14.529v27.794H92.968z M117.735,250v-48.432h14.529V250H117.735z M142.501,229.362v-27.794h14.529v27.794H142.501z"></path>
    <g></g>
    <g></g>
    <g></g>
    <g></g>
    <g></g>
    <g></g>
    <g></g>
    <g></g>
    <g></g>
    <g></g>
    <g></g>
    <g></g>
    <g></g>
    <g></g>
    <g></g>
  </symbol>
  <symbol version="1.1" id="woodworking" xmlns="http://www.w3.org/2000/svg" xmlns:xlink="http://www.w3.org/1999/xlink" x="0px" y="0px" xml:space="preserve" viewBox="0 0 510.972 510.972">
    <g transform="translate(1 1)">
      <g>
        <g>
          <path d="M499.053,269.037l-12.8-26.453c-11.093-22.187-11.947-48.64-3.413-71.68l10.24-29.867c0.853-2.56,0.853-5.12-0.853-7.68
				c-1.707-1.707-4.267-3.413-6.827-3.413H383c-3.413,0-6.827,2.56-8.533,5.973l-9.387,29.013
				c-10.24,28.16-8.533,58.88,4.267,85.333l12.8,26.453c11.093,22.187,11.947,48.64,3.413,71.68l-8.068,22.187h-84.945l2.56-2.56
				c11.411-11.411,18.061-25.537,19.902-40.107H331.8v17.067c0,5.12,3.413,8.533,8.533,8.533c5.12,0,8.533-4.267,8.533-8.533v-51.2
				c0-5.12-3.413-8.533-8.533-8.533c-5.12,0-8.533,3.413-8.533,8.533v17.067h-16.834c-1.345-10.193-5.064-20.167-11.182-29.157
				l33.136-33.136c3.413-3.413,3.413-8.533,0-11.947l-36.481-37.226c10.484-19.364,13.047-41.35,8.321-62.615
				c-5.12-23.04-18.773-42.667-39.253-55.467c-17.067-10.24-36.693-13.653-55.467-9.387s-34.987,16.213-45.227,32.427
				c-8.533,13.653-11.093,29.867-7.68,45.227c3.413,15.36,12.8,29.013,26.453,37.547c11.093,6.827,24.747,9.387,37.547,5.973
				s23.893-11.093,30.72-22.187c5.973-9.387,7.68-20.48,5.12-31.573c-2.56-10.24-9.387-19.627-18.773-25.6
				c-16.213-10.24-37.547-5.12-47.787,11.093c-2.56,4.267-1.707,9.387,2.56,11.947s9.387,1.707,11.947-2.56
				c5.12-8.533,16.213-11.093,24.747-5.973c5.973,3.413,10.24,8.533,11.093,15.36s0,13.653-3.413,18.773
				c-5.12,7.68-11.947,12.8-20.48,14.507s-17.067,0-24.747-4.267c-20.48-11.947-26.453-39.253-13.653-58.88
				c7.68-12.8,20.48-21.333,34.987-24.747c14.507-3.413,29.013-0.853,41.813,6.827c34.133,20.48,44.373,65.707,23.04,98.987
				c0,0,0,0,0,0L106.52,370.584H92.867v-56.228c24.955-10.182,42.667-34.736,42.667-63.239c0-37.547-30.72-68.267-68.267-68.267
				S-1,213.571-1,251.117c0,28.504,17.712,53.058,42.667,63.239v56.227c-14.507,0-25.6,11.093-25.6,25.6v17.067
				c0,14.507,11.093,25.6,25.6,25.6h426.667c14.507,0,25.6-11.947,25.6-25.6v-33.067l9.387-25.813
				C513.56,326.211,511.853,295.491,499.053,269.037z M396.653,269.037l-12.8-26.453c-11.093-22.187-11.947-48.64-3.413-71.68
				l8.533-23.893h84.48l-5.973,17.067c-10.24,28.16-8.533,58.88,4.267,85.333l12.8,26.453c11.093,22.187,11.947,48.64,3.413,71.68
				l-8.533,23.04h-84.48l5.973-16.213C411.16,326.211,409.453,295.491,396.653,269.037z M298.098,316.445
				c-0.277,0.898-0.431,1.879-0.431,2.939c0,0.98,0.127,1.897,0.366,2.74c-0.809,12.175-5.86,24.088-14.872,33.1l-15.36,15.36
				h-52.907l76.8-76.8C295.663,300.807,297.765,308.596,298.098,316.445z M289.133,211.864L319,242.584l-128,128h-60.587
				L289.133,211.864z M16.067,251.117c0-28.16,23.04-51.2,51.2-51.2c28.16,0,51.2,22.187,51.2,51.2c0,28.16-23.04,51.2-51.2,51.2
				C39.107,302.317,16.067,279.277,16.067,251.117z M58.733,319.384H75.8v51.2H58.733V319.384z M476.867,413.251
				c0,5.12-3.413,8.533-8.533,8.533H41.667c-5.12,0-8.533-3.413-8.533-8.533v-17.067c0-5.12,3.413-8.533,8.533-8.533H50.2h34.133
				h25.6h84.48h76.8H383h93.867V413.251z"></path>
          <path d="M75.8,225.517c0-5.12-3.413-8.533-8.533-8.533c-18.773,0-34.133,15.36-34.133,34.133c0,5.12,3.413,8.533,8.533,8.533
				s8.533-4.267,8.533-8.533c0-9.387,7.68-17.067,17.067-17.067C72.387,234.051,75.8,230.637,75.8,225.517z"></path>
          <path d="M434.2,199.917c0-9.387-7.68-17.067-17.067-17.067s-17.067,7.68-17.067,17.067s7.68,17.067,17.067,17.067
				S434.2,209.304,434.2,199.917z"></path>
          <path d="M451.267,336.451c9.387,0,17.067-7.68,17.067-17.067s-7.68-17.067-17.067-17.067c-9.387,0-17.067,7.68-17.067,17.067
				S441.88,336.451,451.267,336.451z"></path>
        </g>
      </g>
    </g>
    <g></g>
    <g></g>
    <g></g>
    <g></g>
    <g></g>
    <g></g>
    <g></g>
    <g></g>
    <g></g>
    <g></g>
    <g></g>
    <g></g>
    <g></g>
    <g></g>
    <g></g>
  </symbol>
</svg>